<?xml version="1.0" standalone="no"?>
<!DOCTYPE svg PUBLIC "-//W3C//DTD SVG 20010904//EN"
 "http://www.w3.org/TR/2001/REC-SVG-20010904/DTD/svg10.dtd">
<svg version="1.0" xmlns="http://www.w3.org/2000/svg"
 width="700.000000pt" height="700.000000pt" viewBox="0 0 700.000000 700.000000"
 preserveAspectRatio="xMidYMid meet">
<metadata>
Created by potrace 1.11, written by Peter Selinger 2001-2013
</metadata>
<g transform="translate(0.000000,700.000000) scale(0.100000,-0.100000)"
fill="#000000" stroke="none">
<path d="M1583 6484 l-26 -26 6 -167 c6 -152 34 -431 72 -720 12 -91 15 -237
15 -710 l0 -596 29 -82 c37 -107 72 -165 145 -241 54 -57 174 -132 210 -132 7
0 19 -44 30 -107 60 -358 185 -542 396 -584 47 -9 60 -16 75 -41 34 -58 167
-208 233 -263 218 -182 433 -271 682 -282 189 -8 337 25 520 117 159 81 330
226 445 378 l60 79 64 12 c216 40 358 237 418 580 l19 103 58 24 c145 59 257
187 317 363 18 50 19 94 19 638 0 564 1 590 25 775 37 286 65 557 72 708 l6
135 -27 33 c-24 27 -34 32 -72 32 -74 0 -90 -25 -98 -146 -13 -198 -38 -444
-66 -673 l-30 -235 0 -583 c0 -571 0 -583 -21 -640 -12 -32 -34 -76 -50 -99
-28 -41 -103 -114 -117 -114 -4 0 -17 71 -29 158 -36 260 -118 547 -230 812
-55 129 -81 160 -137 160 -39 0 -47 -7 -251 -210 -206 -206 -244 -234 -258
-196 -11 27 10 70 98 211 168 267 337 499 412 564 26 23 98 67 159 96 88 43
114 60 123 83 8 20 11 131 9 396 l-3 368 -28 24 c-30 26 -83 32 -119 13 -44
-23 -48 -59 -48 -387 l0 -310 -32 -13 c-58 -24 -175 -106 -234 -165 -126 -125
-494 -676 -524 -784 -26 -94 -5 -178 60 -242 61 -59 128 -78 211 -58 51 12 64
23 221 178 92 91 170 163 172 161 22 -22 123 -330 160 -489 90 -384 74 -705
-46 -932 -31 -59 -79 -114 -64 -74 37 101 50 187 49 316 -1 184 -43 496 -92
677 -14 51 -52 83 -98 83 -47 0 -72 -16 -89 -55 -12 -30 -11 -45 11 -142 67
-297 89 -620 52 -753 -80 -284 -314 -563 -582 -694 -242 -118 -488 -120 -729
-8 -274 129 -494 385 -582 679 -21 71 -26 109 -27 198 0 143 34 385 84 603 17
73 17 87 5 117 -17 39 -42 55 -89 55 -46 0 -84 -32 -98 -82 -25 -93 -61 -292
-80 -443 -25 -194 -22 -372 9 -477 11 -38 17 -68 15 -68 -2 0 -20 33 -38 73
-45 93 -83 263 -92 398 -15 254 63 630 206 993 l12 29 162 -161 c146 -143 169
-162 219 -177 136 -43 275 45 294 187 13 94 -29 182 -229 483 -230 344 -335
461 -493 550 l-84 47 0 323 0 322 -26 27 c-40 39 -103 37 -138 -5 l-26 -31 0
-372 c0 -359 1 -374 20 -399 11 -14 37 -31 58 -38 58 -19 122 -53 188 -102 83
-61 244 -277 439 -589 75 -119 95 -159 93 -183 -6 -63 -31 -47 -252 174 -209
208 -213 211 -254 211 -31 0 -49 -6 -65 -22 -50 -50 -194 -434 -251 -668 -31
-127 -66 -339 -66 -397 0 -24 -4 -43 -8 -43 -19 0 -89 59 -115 97 -16 23 -39
68 -53 100 l-24 58 0 576 0 577 -35 278 c-37 296 -65 592 -65 686 0 46 -5 62
-26 87 -22 26 -33 31 -70 31 -35 0 -51 -6 -71 -26z"/>
<path d="M3235 5915 c-193 -32 -420 -104 -470 -151 -37 -34 -35 -96 4 -135 38
-38 65 -37 174 5 199 78 338 100 607 93 220 -5 305 -19 452 -72 40 -15 89 -32
109 -38 96 -28 169 80 102 152 -36 39 -182 92 -344 126 -105 23 -156 27 -334
30 -153 3 -235 0 -300 -10z"/>
<path d="M3407 5329 c-79 -22 -193 -72 -219 -96 -56 -51 -12 -162 65 -163 15
0 58 13 95 28 115 49 153 56 214 42 29 -7 72 -21 96 -32 62 -26 104 -23 135 7
34 34 40 67 23 110 -18 43 -82 75 -210 105 -98 24 -112 24 -199 -1z"/>
<path d="M3012 4259 c-109 -55 -142 -190 -71 -289 81 -112 250 -105 323 13 55
90 31 203 -57 264 -54 37 -135 43 -195 12z"/>
<path d="M3795 4261 c-151 -70 -153 -275 -3 -352 44 -22 115 -25 161 -5 39 17
92 71 106 109 14 36 14 108 0 144 -37 98 -166 149 -264 104z"/>
<path d="M3140 3372 c-35 -36 -39 -73 -11 -118 23 -38 135 -85 246 -105 183
-32 458 29 500 111 23 45 19 78 -15 112 -27 26 -36 29 -73 25 -23 -3 -76 -17
-117 -33 -62 -22 -91 -27 -170 -27 -79 0 -108 5 -170 27 -41 16 -94 30 -117
33 -37 4 -46 1 -73 -25z"/>
<path d="M2443 2415 c-400 -72 -734 -354 -854 -720 -20 -63 -23 -93 -27 -317
l-4 -248 30 -30 c39 -38 88 -41 129 -6 l28 24 6 229 c5 208 8 235 32 306 47
144 148 282 279 383 129 100 326 181 463 191 l70 5 65 -50 c183 -139 409 -246
612 -289 113 -24 343 -24 456 0 207 44 438 155 632 304 44 34 47 35 115 30 91
-7 219 -48 322 -102 207 -109 351 -271 419 -470 26 -75 28 -94 33 -308 l6
-229 28 -24 c41 -35 90 -32 129 6 l30 30 -4 248 c-4 224 -7 253 -27 317 -86
262 -282 484 -541 615 -138 70 -333 120 -464 120 -61 0 -63 -1 -154 -69 -165
-126 -314 -204 -487 -257 -83 -25 -104 -28 -260 -28 -143 0 -182 3 -247 22
-176 48 -338 132 -510 262 l-92 70 -70 -1 c-39 0 -103 -7 -143 -14z"/>
</g>
</svg>
